<?xml version="1.0" encoding="UTF-8"?>
<svg width="34px" height="30px" viewBox="0 0 34 30" version="1.1" xmlns="http://www.w3.org/2000/svg" xmlns:xlink="http://www.w3.org/1999/xlink">
    <!-- Generator: Sketch 52 (66869) - http://www.bohemiancoding.com/sketch -->
    <title>shopping-cart</title>
    <desc>Created with Sketch.</desc>
    <g id="Symbols" stroke="none" stroke-width="1" fill="none" fill-rule="evenodd">
        <g id="btn/btn-compras-select" transform="translate(0.000000, -4.000000)" fill="#FFFFFF" fill-rule="nonzero">
            <g id="btn-compras-select">
                <g id="shopping-cart" transform="translate(0.000000, 4.000000)">
                    <path d="M10.9544556,20.0002604 L10.956012,20.0002604 C10.957309,20.0002604 10.958606,20 10.959903,20 L29.0195799,20 C29.4641912,20 29.8551068,19.7039063 29.9772841,19.2747396 L33.9616658,5.2747396 C34.0475272,4.97291667 33.9873464,4.64843747 33.7992815,4.39791667 C33.6109572,4.14739587 33.3165384,4 33.0039615,4 L8.65721058,4 L7.94515795,0.783072933 C7.84373266,0.3255208 7.43958766,0 6.97266793,0 L0.996095419,0 C0.445908357,0 0,0.447656267 0,1 C0,1.55234373 0.445908357,2 0.996095419,2 L6.1737164,2 C6.29978476,2.57005207 9.58119281,17.3945313 9.7700359,18.2473959 C8.71142514,18.709375 7.96876335,19.7690104 7.96876335,21 C7.96876335,22.6541667 9.30934177,24 10.9570496,24 L29.0195799,24 C29.5697669,24 30.0156753,23.5523437 30.0156753,23 C30.0156753,22.4476563 29.5697669,22 29.0195799,22 L10.9570496,22 C10.4079001,22 9.96095419,21.5513021 9.96095419,21 C9.96095419,20.4494792 10.4063437,20.0015625 10.9544556,20.0002604 Z M31.6833569,6 L28.2680985,18 L11.7560011,18 L9.09974669,6 L31.6833569,6 Z" id="Shape"></path>
                    <path d="M10,27 C10,28.6541667 11.3458333,30 13,30 C14.6541667,30 16,28.6541667 16,27 C16,25.3458333 14.6541667,24 13,24 C11.3458333,24 10,25.3458333 10,27 Z M13,26 C13.5513021,26 14,26.4486979 14,27 C14,27.5513021 13.5513021,28 13,28 C12.4486979,28 12,27.5513021 12,27 C12,26.4486979 12.4486979,26 13,26 Z" id="Shape"></path>
                    <path d="M24,27 C24,28.6541667 25.3458333,30 27,30 C28.6541667,30 30,28.6541667 30,27 C30,25.3458333 28.6541667,24 27,24 C25.3458333,24 24,25.3458333 24,27 Z M27,26 C27.5513021,26 28,26.4486979 28,27 C28,27.5513021 27.5513021,28 27,28 C26.4486979,28 26,27.5513021 26,27 C26,26.4486979 26.4486979,26 27,26 Z" id="Shape"></path>
                </g>
            </g>
        </g>
    </g>
</svg>