<?xml version="1.0" encoding="UTF-8"?>
<svg width="30px" height="33px" viewBox="0 0 30 33" version="1.1" xmlns="http://www.w3.org/2000/svg" xmlns:xlink="http://www.w3.org/1999/xlink">
    <!-- Generator: Sketch 52 (66869) - http://www.bohemiancoding.com/sketch -->
    <title>package</title>
    <desc>Created with Sketch.</desc>
    <g id="Symbols" stroke="none" stroke-width="1" fill="none" fill-rule="evenodd">
        <g id="btn/btn-stock-select" transform="translate(0.000000, -3.000000)" fill="#FFFFFF" fill-rule="nonzero">
            <g id="btn-stock-select">
                <g id="package" transform="translate(0.000000, 3.000000)">
                    <path d="M29.9862448,7.77986492 C29.9862448,7.65449557 29.9587345,7.52912621 29.9037139,7.41072182 C29.7936726,7.17391304 29.5804677,7.01371887 29.34663,6.96496412 L15.3370014,0.0835795694 C15.1100413,-0.0278598565 14.8418157,-0.0278598565 14.6148556,0.0835795694 L0.467675378,7.0276488 C0.192572215,7.15998312 0.0137551582,7.43858168 0,7.75200507 L0,7.75897003 C0,7.76593499 0,7.77289996 0,7.78682989 L0,25.2131701 C0,25.5335585 0.178817056,25.826087 0.467675378,25.9653862 L14.6148556,32.9094555 C14.6217331,32.9094555 14.6217331,32.9094555 14.6286107,32.9164204 C14.6492435,32.9233854 14.6698762,32.9303504 14.6905089,32.9442803 C14.6973865,32.9442803 14.7042641,32.9512453 14.7180193,32.9512453 C14.738652,32.9582102 14.7592847,32.9651752 14.7799175,32.9721401 C14.786795,32.9721401 14.7936726,32.9791051 14.8005502,32.9791051 C14.8211829,32.9860701 14.8486933,32.9860701 14.869326,32.993035 C14.8762036,32.993035 14.8830812,32.993035 14.8899587,32.993035 C14.9174691,32.993035 14.9518569,33 14.9793673,33 C15.0068776,33 15.0412655,33 15.0687758,32.993035 C15.0756534,32.993035 15.0825309,32.993035 15.0894085,32.993035 C15.1100413,32.993035 15.1375516,32.9860701 15.1581843,32.9791051 C15.1650619,32.9791051 15.1719395,32.9721401 15.1788171,32.9721401 C15.1994498,32.9651752 15.2200825,32.9582102 15.2407153,32.9512453 C15.2475928,32.9512453 15.2544704,32.9442803 15.2682256,32.9442803 C15.2888583,32.9373153 15.3094911,32.9303504 15.3301238,32.9164204 C15.3370014,32.9164204 15.3370014,32.9164204 15.343879,32.9094555 L29.5323246,25.9444913 C29.8143054,25.8051921 30,25.5126636 30,25.1922752 L30,7.80075981 C29.9862448,7.79379485 29.9862448,7.78682989 29.9862448,7.77986492 Z M14.9724897,1.76213592 L27.2420908,7.78682989 L22.7235213,10.0086534 L10.4539202,3.98395948 L14.9724897,1.76213592 Z M14.9724897,13.8115238 L2.70288858,7.78682989 L8.56258597,4.9102997 L20.8321871,10.9349937 L14.9724897,13.8115238 Z M1.65061898,9.13106796 L14.1471802,15.2672014 L14.1471802,30.8199662 L1.65061898,24.6838328 L1.65061898,9.13106796 Z M15.7977992,30.8199662 L15.7977992,15.2672014 L21.6643741,12.3837062 L21.6643741,16.4512453 C21.6643741,16.9109329 22.0357634,17.2870409 22.4896836,17.2870409 C22.9436039,17.2870409 23.3149931,16.9109329 23.3149931,16.4512453 L23.3149931,11.5688054 L28.3356259,9.1032081 L28.3356259,24.655973 L15.7977992,30.8199662 Z" id="Shape"></path>
                </g>
            </g>
        </g>
    </g>
</svg>