<?xml version="1.0" encoding="UTF-8"?>
<svg width="30px" height="33px" viewBox="0 0 30 33" version="1.1" xmlns="http://www.w3.org/2000/svg" xmlns:xlink="http://www.w3.org/1999/xlink">
    <!-- Generator: Sketch 52 (66869) - http://www.bohemiancoding.com/sketch -->
    <title>product</title>
    <desc>Created with Sketch.</desc>
    <g id="Symbols" stroke="none" stroke-width="1" fill="none" fill-rule="evenodd">
        <g id="btn/btn-ventas-select" fill="#FFFFFF" fill-rule="nonzero">
            <g id="btn-ventas-select">
                <g id="product">
                    <path d="M29.8549027,15.4810318 C29.6726894,15.1823977 29.3457541,15 28.9933876,15 C26.020295,15 23.2983685,16.5123701 21.7483752,18.9852469 L9.80828875,18.9852469 C8.46384266,18.9852469 7.19962285,19.5033809 6.24896736,20.4444285 L0.294654736,26.3366784 C-0.0980871539,26.7256032 -0.0983493146,27.3566006 0.294654736,27.7457849 C2.73972182,30.1652138 5.30565278,32.6858306 5.3313462,32.7107384 C5.72435019,33.0970687 6.35855751,33.0960308 6.75077501,32.70996 L10.5693899,28.9483643 L19.0033771,28.9483643 C21.6338037,28.9483643 24.025911,27.5164256 25.2452984,25.2114169 C25.2759732,25.1535582 28.3253594,19.3946688 29.8842666,16.4599599 C30.0483897,16.1509476 30.0373782,15.7799253 29.8549027,15.4810318 Z M23.461705,24.2869745 C22.5907515,25.933224 20.882403,26.9557408 19.0033771,26.9557408 L10.1538386,26.9557408 C9.88746631,26.9557408 9.63210548,27.0600422 9.44359986,27.2458129 L6.0397497,30.5987651 C5.23774879,29.8100183 3.85764657,28.4512463 2.43061463,27.0408425 L7.67259101,21.8532756 C8.24308919,21.288699 9.00156868,20.9778704 9.80828875,20.9778704 L20.6676797,20.9778704 L19.8950427,22.4367925 C19.7206947,22.7660424 19.3790774,22.9704939 19.0033771,22.9704939 L12.1673616,22.9704939 C11.6112832,22.9704939 11.1606001,23.4164991 11.1606001,23.9668056 C11.1606001,24.5171122 11.6112832,24.9631174 12.1673616,24.9631174 L19.0033771,24.9631174 C20.1302159,24.9631174 21.1553298,24.3495035 21.6786361,23.3617538 C21.6794225,23.3599376 23.232562,20.4273044 23.232562,20.4273044 C24.0757247,18.848773 25.5145547,17.7159873 27.1953744,17.240923 C25.589013,20.2692956 23.4873984,24.2387157 23.461705,24.2869745 Z" id="Shape"></path>
                    <path d="M8.07142857,18 L20.9285714,18 C21.5200893,18 22,17.5539956 22,17.00369 L22,4.98154982 C22,4.43124425 21.5200893,3.98523985 20.9285714,3.98523985 L17.7142857,3.98523985 L17.7142857,2.98892989 C17.7142857,1.34086716 16.2723214,0 14.5,0 C12.7276786,0 11.2857143,1.34086716 11.2857143,2.98892989 L11.2857143,3.98523985 L8.07142857,3.98523985 C7.47963171,3.98523985 7,4.43124425 7,4.98154982 L7,17.00369 C7,17.5539956 7.47963171,18 8.07142857,18 Z M13.4285714,2.98892989 C13.4285714,2.43966215 13.9090402,1.99261993 14.5,1.99261993 C15.0906809,1.99261993 15.5714286,2.43966215 15.5714286,2.98892989 L15.5714286,3.98523985 L13.4285714,3.98523985 L13.4285714,2.98892989 Z M9.14285714,5.97785978 L11.2857143,5.97785978 L11.2857143,6.97416974 C11.2857143,7.52447531 11.765346,7.9704797 12.3571429,7.9704797 C12.9486607,7.9704797 13.4285714,7.52447531 13.4285714,6.97416974 L13.4285714,5.97785978 L15.5714286,5.97785978 L15.5714286,6.97416974 C15.5714286,7.52447531 16.0510603,7.9704797 16.6428571,7.9704797 C17.234375,7.9704797 17.7142857,7.52447531 17.7142857,6.97416974 L17.7142857,5.97785978 L19.8571429,5.97785978 L19.8571429,16.0073801 L9.14285714,16.0073801 L9.14285714,5.97785978 Z" id="Shape"></path>
                </g>
            </g>
        </g>
    </g>
</svg>